:SAMPLES-PER-SECOND 30
:FRAME-RANGE 1-663
:FULLY-SPECIFIED
:DEGREES
539
root  -17.4536 38.497 -109.925 -179.236 -7.79841 179.931
RightUpLeg  -21.9773 0.627466 0.519762
RightLeg  7.77457 -10.6735 -1.22275
RightFoot  3.82231 -0.462003 3.66558
RightToes  -3.4386e-010 1.2921e-014 -6.02303e-014
Spine  -8.17327 -5.92309 -0.773011
Spine1  10.0909 -6.88613 2.17281
HEad  26.0782 -11.9844 -0.537924
LeftShoulder1  2.07264 -4.45485 -20.5443
LeftArm  12.2586 -14.5971 -58.0759
LeftForeArm  21.008 -10.1867 -11.7867
LeftHand  -0.0663387 3.7694 3.49281
RightShoulder  1.07803 0.0745074 25.7451
RightArm  -28.2095 -11.8969 51.0594
RightForeArm  66.2703 -5.39359 3.19515
RightHand  0.0130429 -5.57879 -16.5991
LeftUpLeg  9.64317 -4.65561 -7.29633
LeftLeg  18.1681 3.04578 1.74499
LeftFoot  -18.193 0.09739 -0.196158
LeftToes  -7.12384e-010 -7.51861e-011 -8.34901e-011
540
root  -17.6427 38.5257 -111.177 -179.142 -7.76715 -178.897
RightUpLeg  -22.2572 -0.360452 1.7638
RightLeg  11.0982 -9.29757 -1.21236
RightFoot  5.54743 -0.552485 3.97558
RightToes  -3.4386e-010 1.2921e-014 -6.02303e-014
Spine  -8.49525 -6.36823 0.967411
Spine1  10.1658 -7.67049 2.92412
HEad  26.8581 -12.1422 -0.834255
LeftShoulder1  2.15499 -4.60588 -21.1125
LeftArm  10.5426 -13.0194 -57.3367
LeftForeArm  22.3972 -8.65173 -12.373
LeftHand  -0.0611509 3.4532 2.66702
RightShoulder  0.995584 -0.196666 25.8581
RightArm  -28.2305 -12.0647 50.011
RightForeArm  65.0633 -5.42769 3.13345
RightHand  0.169262 -6.78792 -15.5288
LeftUpLeg  9.24854 -4.26544 -5.71028
LeftLeg  22.1279 1.90338 1.18696
LeftFoot  -16.6073 -0.0368493 -2.96545
LeftToes  -7.12384e-010 -7.51861e-011 -8.34901e-011
541
root  -17.7793 38.5323 -112.416 -179.149 -6.4595 -177.912
RightUpLeg  -22.2634 -2.0252 3.64081
RightLeg  14.416 -6.07312 -0.950939
RightFoot  4.37532 -0.29083 2.3233
RightToes  -3.4386e-010 1.2921e-014 -6.02303e-014
Spine  -8.6315 -6.34645 2.43562
Spine1  10.4515 -7.81237 3.60395
HEad  28.0385 -12.1644 -1.02277
LeftShoulder1  2.12973 -4.43249 -21.4151
LeftArm  6.95649 -11.4821 -56.9679
LeftForeArm  25.7759 -5.56714 -13.1025
LeftHand  -0.057659 3.78482 2.85428
RightShoulder  1.02853 -0.108823 26.0248
RightArm  -28.0057 -11.8592 49.0808
RightForeArm  64.3467 -5.46126 3.17871
RightHand  0.260205 -7.5345 -15.1586
LeftUpLeg  7.17665 -0.118412 -2.90613
LeftLeg  28.9813 -2.13241 -0.933243
LeftFoot  -13.0013 -0.0186835 -6.6563
LeftToes  -7.12384e-010 -7.51861e-011 -8.34901e-011
542
root  -17.8748 38.5764 -113.53 -178.911 -5.36608 -177.25
RightUpLeg  -21.9683 -1.65736 4.80407
RightLeg  16.632 -5.3382 -1.18421
RightFoot  3.00646 -0.0379088 0.464266
RightToes  -3.4386e-010 1.2921e-014 -6.02303e-014
Spine  -8.57231 -6.37245 3.359
Spine1  10.6394 -7.94873 4.36093
HEad  28.9517 -12.4011 -0.812781
LeftShoulder1  2.12017 -4.49658 -21.0431
LeftArm  2.54297 -9.6022 -56.9201
LeftForeArm  29.8727 -2.18384 -13.1675
LeftHand  -0.0464478 4.00158 2.22447
RightShoulder  1.07095 0.0128621 26.1388
RightArm  -27.9552 -11.4018 48.7305
RightForeArm  64.0672 -5.4648 3.13966
RightHand  0.376711 -8.40491 -15.3201
LeftUpLeg  3.1802 3.68419 -0.0765153
LeftLeg  37.9061 -5.40404 -4.13247
LeftFoot  -6.5097 0.500316 -10.9113
LeftToes  -7.12384e-010 -7.51861e-011 -8.34901e-011
543
root  -17.9805 38.5953 -114.542 -178.875 -4.83914 -176.561
RightUpLeg  -21.2419 -0.998059 5.61546
RightLeg  18.3458 -5.46347 -1.4973
RightFoot  1.12082 0.0974072 -0.821687
RightToes  -3.4386e-010 1.2921e-014 -6.02303e-014
Spine  -8.04205 -6.49921 4.4445
Spine1  10.5685 -8.11764 4.92779
HEad  29.7754 -12.7718 -0.346982
LeftShoulder1  2.15868 -4.67124 -20.9237
LeftArm  0.535279 -8.04467 -56.4825
LeftForeArm  31.7271 0.657878 -13.1473
LeftHand  -0.0401303 4.36226 2.0648
RightShoulder  0.901772 -0.52711 26.2786
RightArm  -27.7619 -10.4208 48.8513
RightForeArm  63.7582 -5.48115 3.17116
RightHand  0.58527 -9.7821 -16.0379
LeftUpLeg  -1.8023 5.24642 2.09949
LeftLeg  47.3192 -6.01036 -6.52732
LeftFoot  1.25353 1.75344 -15.8739
LeftToes  -7.12384e-010 -7.51861e-011 -8.34901e-011
544
root  -18.1156 38.5465 -115.516 -179.173 -3.98288 -176.008
RightUpLeg  -20.3405 -1.69207 6.35623
RightLeg  20.4387 -3.76099 -1.18995
RightFoot  -1.5337 0.0653941 -0.883317
RightToes  -3.4386e-010 1.2921e-014 -6.02303e-014
Spine  -7.33536 -6.47285 5.77609
Spine1  10.7148 -7.94942 4.92316
HEad  30.2573 -13.3592 -0.00480119
LeftShoulder1  2.10781 -4.37662 -21.3241
LeftArm  -0.193206 -7.07337 -55.5753
LeftForeArm  32.2826 3.35765 -13.2025
LeftHand  -0.0370068 4.62252 2.09282
RightShoulder  0.9252 -0.458329 26.327
RightArm  -27.2784 -9.66908 49.0233
RightForeArm  62.6579 -5.56171 3.41966
RightHand  0.530516 -9.33408 -16.2206
LeftUpLeg  -6.48789 6.1459 3.64888
LeftLeg  55.0912 -5.22432 -7.5221
LeftFoot  8.09996 3.25514 -19.1381
LeftToes  -7.12384e-010 -7.51861e-011 -8.34901e-011
545
root  -18.2646 38.5833 -116.513 -179.374 -2.84359 -176.075
RightUpLeg  -19.0745 -1.82697 6.35232
RightLeg  21.8394 -2.51985 -0.965419
RightFoot  -3.70102 0.0363223 -0.919932
RightToes  -3.4386e-010 1.2921e-014 -6.02303e-014
Spine  -6.94373 -6.2676 6.34854
Spine1  10.7208 -7.61614 4.79632
HEad  31.3405 -13.6214 0.402546
LeftShoulder1  2.07955 -4.23349 -21.4792
LeftArm  -1.9044 -5.43236 -54.9628
LeftForeArm  32.6486 5.60177 -12.7452
LeftHand  -0.0329701 4.94667 2.14005
RightShoulder  0.970492 -0.324036 26.3993
RightArm  -26.8175 -8.77034 49.2595
RightForeArm  62.8266 -5.58636 3.60315
RightHand  0.359613 -8.20342 -15.6701
LeftUpLeg  -10.5786 7.00364 4.27438
LeftLeg  60.674 -3.79451 -6.72719
LeftFoot  5.39875 2.53556 -17.3443
LeftToes  -7.12384e-010 -7.51861e-011 -8.34901e-011
546
root  -18.4311 38.672 -117.516 -179.552 -1.31128 -176.567
RightUpLeg  -17.5159 -1.84357 5.86961
RightLeg  22.6054 -1.26423 -0.602858
RightFoot  -5.37178 0.0405997 -1.47654
RightToes  -3.4386e-010 1.2921e-014 -6.02303e-014
Spine  -6.45511 -5.81253 6.56396
Spine1  10.2817 -7.03579 4.52449
HEad  32.4163 -13.8736 0.260142
LeftShoulder1  2.01573 -3.96103 -21.6446
LeftArm  -3.18769 -3.40086 -54.2296
LeftForeArm  31.9776 6.85703 -12.3746
LeftHand  -0.0343592 5.17365 2.1221
RightShoulder  1.02729 -0.127983 26.1858
RightArm  -26.3235 -8.15768 49.6089
RightForeArm  63.0461 -5.61457 3.81916
RightHand  0.0903682 -6.169 -15.8529
LeftUpLeg  -13.9899 7.73888 4.4059
LeftLeg  62.9502 -2.38655 -4.46933
LeftFoot  2.54853 1.782 -14.691
LeftToes  -7.12384e-010 -7.51861e-011 -8.34901e-011
